<svg width="64" height="64" viewBox="0 0 64 64" fill="none" xmlns="http://www.w3.org/2000/svg">
  <!-- Book base -->
  <rect x="8" y="32" width="48" height="24" rx="2" fill="#3B82F6" stroke="#1E40AF" stroke-width="2"/>
  <rect x="10" y="34" width="44" height="20" rx="1" fill="#60A5FA"/>
  
  <!-- Book pages -->
  <line x1="16" y1="38" x2="48" y2="38" stroke="#1E40AF" stroke-width="1"/>
  <line x1="16" y1="42" x2="44" y2="42" stroke="#1E40AF" stroke-width="1"/>
  <line x1="16" y1="46" x2="40" y2="46" stroke="#1E40AF" stroke-width="1"/>
  <line x1="16" y1="50" x2="36" y2="50" stroke="#1E40AF" stroke-width="1"/>
  
  <!-- Rocket body -->
  <ellipse cx="32" cy="24" rx="6" ry="16" fill="#EF4444"/>
  <ellipse cx="32" cy="24" rx="4" ry="14" fill="#F87171"/>
  
  <!-- Rocket nose -->
  <path d="M32 8 L38 16 L26 16 Z" fill="#DC2626"/>
  
  <!-- Rocket fins -->
  <path d="M26 32 L22 36 L26 36 Z" fill="#DC2626"/>
  <path d="M38 32 L42 36 L38 36 Z" fill="#DC2626"/>
  
  <!-- Rocket window -->
  <circle cx="32" cy="20" r="3" fill="#60A5FA" stroke="#1E40AF" stroke-width="1"/>
  <circle cx="32" cy="20" r="2" fill="#DBEAFE"/>
  
  <!-- Flame/exhaust -->
  <path d="M28 32 L32 40 L36 32" fill="#F59E0B"/>
  <path d="M30 32 L32 36 L34 32" fill="#FCD34D"/>
</svg>